PathFileType	4	(X/Y/Z)	C:/Users/beibeiliu/ov580/test_trc/User2\sequence.27_training_dense_left.trc
DataRate	CameraRate	NumFrames	NumMarkers	Units	OrigDataRate	OrigDataStartFrame	OrigNumFrames
120	120	15	19	mm	120	244	278
Frame#	Time	ThumbCMC			ThumbMCP			ThumbIP			ThumbTip			IndexMCP			IndexPIP			IndexTip			MiddleMCP			MiddlePIP			MiddleTip			RingMCP			RingPIP			RingTip			PinkyMCP			PinkyPIP			PinkyTip			BackHand1			BackHand2			BackHand3	
		X0	Y0	Z0	X1	Y1	Z1	X2	Y2	Z2	X3	Y3	Z3	X4	Y4	Z4	X5	Y5	Z5	X6	Y6	Z6	X7	Y7	Z7	X8	Y8	Z8	X9	Y9	Z9	X10	Y10	Z10	X11	Y11	Z11	X12	Y12	Z12	X13	Y13	Z13	X14	Y14	Z14	X15	Y15	Z15	X16	Y16	Z16	X17	Y17	Z17	X18	Y18	Z18	
243	2.025	-111.271	-14.8671	130.316	-88.1658	-14.3609	98.9326	-78.6199	-6.831	64.6616	-80.2535	-2.12467	37.5473	-109.685	53.9665	81.4164	-94.6732	63.1691	57.7659	-74.769	60.4324	32.0694	-129.287	54.311	64.915	-111.309	59.3183	34.0035	-90.0476	35.9273	12.5003	-144.113	33.8695	50.6827	-121.532	35.4248	27.2654	-97.1823	5.64712	16.853	-157.101	16.4893	44.6372	-138.056	16.8424	19.9152	-113.82	1.31351	11.8571	-166.89	10.1344	98.48	-178.754	-10.4873	124.613	-151.447	9.70787	130.079	
244	2.03333	-113.265	-13.1057	126.388	-88.0548	-14.1984	99.0983	-77.7798	-8.88088	66.1854	-79.2094	-3.06796	34.4905	-114.327	51.8283	79.4243	-100.683	62.6134	54.5013	-79.2762	59.5992	29.8351	-134.82	53.0724	61.6965	-119.319	56.1987	29.76	-96.1707	35.8158	7.78432	-147.76	34.107	48.4504	-126.016	32.3659	21.0284	-105.042	7.69674	9.81395	-164.654	11.8013	44.9758	-148.702	14.5314	17.9405	-121.971	2.30234	5.6176	-174.562	4.22801	97.4639	-182.458	-10.6149	122.244	-149.096	8.94386	131.841	
245	2.04167	-114.586	-10.0479	125.904	-88.6583	-9.59163	91.9846	-75.9168	-9.60435	63.3962	-78.1844	-10.6446	35.3661	-123.985	49.8529	65.5346	-109.696	57.8976	40.3231	-91.102	54.6149	15.4989	-144.867	44.6804	54.1288	-130.174	48.6061	19.6855	-107.046	28.0281	-2.98249	-156.871	27.7801	41.2526	-139.607	24.876	12.1496	-117.069	5.74532	1.19145	-173.811	0.976462	41.0386	-156.414	7.77327	14.922	-131.191	-1.85801	-0.797026	-178.14	1.3686	91.7869	-184.273	-15.5287	120.494	-154.582	10.2964	125.163	
246	2.05	-115.216	-3.98343	119.811	-92.3631	-6.58291	88.3028	-79.2877	-9.81049	61.7899	-78.2098	-14.1052	33.2073	-134.791	43.8551	51.7559	-121.561	50.1824	24.8742	-107.353	40.7841	-0.0688519	-154.825	35.4484	41.5342	-137.339	35.4601	6.42905	-113.685	18.6351	-10.688	-170.016	12.3341	33.3729	-147.458	14.5446	5.75643	-123.063	-6.33432	-6.05571	-176.982	-8.42669	36.8677	-160.854	-4.87996	8.54881	-140.617	-12.8186	-2.91471	-181.256	-3.9536	88.4332	-186.048	-21.1752	120.511	-160.052	10.68	114.881	
247	2.05833	-121.997	-0.866959	113.676	-98.6608	-6.67134	87.4072	-82.8783	-7.61289	53.9248	-79.8247	-16.0779	31.1227	-144.007	36.7499	43.0816	-134.206	38.354	14.0668	-117.402	29.7575	-9.95815	-162.259	20.6158	30.4543	-145.882	18.1018	-1.32865	-117.856	-3.48345	-19.0108	-175.279	-2.94478	28.2099	-157.953	-7.32079	-2.10379	-127.64	-22.7214	-11.2392	-182.513	-26.4183	35.8085	-166.802	-22.8228	7.2803	-142.895	-27.5993	-7.08048	-187.802	-16.2381	84.3191	-188.972	-24.0005	117.405	-167.531	5.28613	112.26	
248	2.06667	-125.648	4.08066	107.786	-102.327	-1.68213	82.5841	-85.1652	-6.49034	53.3959	-82.1791	-18.3447	25.8228	-157.189	19.9782	33.4942	-146.718	21.6807	2.35648	-130.704	8.44764	-21.2506	-171.152	-0.317882	22.1371	-149.756	-3.43985	-10.5588	-123.166	-21.1626	-22.3845	-178.031	-21.1381	24.2472	-160.067	-25.2126	-4.0719	-131.044	-36.5569	-12.5948	-182.987	-45.1988	36.4239	-169.01	-46.7888	6.47898	-142.345	-52.9465	-9.70523	-187.918	-24.8625	82.0127	-190.596	-27.7015	116.761	-171.154	0.662325	104.757	
249	2.075	-133.065	5.76964	98.6982	-107.802	0.25336	74.824	-89.7863	-7.22982	43.2996	-82.8456	-21.3406	22.6289	-166.667	5.41677	21.125	-158.044	2.46187	-4.88251	-139.217	-8.66719	-27.3978	-174.353	-18.1453	17.8093	-155.628	-28.3742	-12.7432	-122.597	-45.6738	-21.3998	-179.789	-41.3171	21.3875	-159.227	-49.211	-6.18706	-125.023	-57.8044	-9.53299	-182.406	-61.965	36.0968	-169.147	-70.7455	9.02095	-142.357	-74.8453	-5.53423	-193.535	-38.1886	81.0864	-190.43	-34.2942	114.743	-177.683	-1.16555	99.3098	
250	2.08333	-142.291	0.718107	92.7556	-112.729	-1.43125	68.1965	-95.6743	-11.955	39.0664	-88.1301	-26.6785	21.8425	-171.809	-5.47265	16.9018	-165.221	-16.5048	-10.2023	-142.977	-29.2235	-35.6962	-176.387	-36.3333	10.2019	-152.664	-45.1405	-14.0222	-120.217	-59.398	-16.7284	-178.04	-55.5785	20.9658	-157.507	-69.6475	-2.39984	-124.342	-70.8716	-4.1679	-179.26	-75.3957	39.8	-162.979	-86.7409	12.8392	-137.146	-88.5918	1.29252	-193.498	-43.2074	80.1538	-193.008	-39.3207	113.174	-183.314	-10.2784	93.2551	
251	2.09167	-146.65	1.39194	89.9865	-119.186	-4.14409	65.8189	-101.564	-17.1641	36.257	-95.9677	-35.7604	17.1985	-175.856	-21.9215	11.7528	-165.491	-30.8809	-14.6594	-146.258	-41.0854	-34.1301	-175.295	-47.8003	10.2086	-150.834	-60.6415	-11.4502	-113.893	-66.4228	-9.14997	-175.361	-71.269	18.613	-151.77	-78.9025	-0.452526	-116.35	-78.8368	4.20616	-174.159	-86.1438	42.5661	-156.558	-97.3643	16.1474	-124.838	-93.5039	6.99208	-194.35	-52.5523	76.9003	-196.283	-46.1817	112.326	-190.843	-19.6512	88.1975	
252	2.1	-153.355	-5.24825	86.8114	-125.024	-7.68952	56.3541	-106.457	-19.9653	32.6116	-96.8757	-40.3531	14.687	-178.336	-31.7713	12.2012	-165.2	-46.1238	-16.5866	-145.275	-55.987	-36.6763	-172.973	-62.144	9.34829	-144.909	-68.9935	-9.418	-104.216	-67.9894	-0.520313	-170.559	-81.3165	20.9881	-146.392	-87.7259	4.19615	-111.934	-83.3531	11.4105	-168.571	-100.478	42.2738	-144.346	-102.329	18.3101	-116.535	-93.7923	15.3226	-192.142	-61.7544	78.8726	-196.876	-53.083	110.834	-193.836	-25.4333	85.2573	
253	2.10833	-154.847	-5.27497	83.4963	-128.508	-13.1629	56.6152	-107.926	-24.7301	28.5516	-96.5755	-44.8447	11.8424	-178.296	-47.4363	9.19503	-166.956	-53.2017	-15.4162	-146.822	-62.4801	-36.8648	-167.899	-71.1726	9.52445	-139.843	-76.5999	-7.43489	-102.034	-71.6449	4.46934	-162.896	-92.4328	21.0067	-136.025	-96.6365	8.20704	-103.255	-81.9264	19.0486	-161.719	-106.643	44.1004	-135.195	-108.802	22.2916	-108.902	-99.9693	19.8965	-191.269	-72.2285	76.1797	-195.676	-62.2113	108.155	-192.653	-31.1439	81.0789	
254	2.11667	-157.696	-12.3928	77.707	-127.941	-13.1267	52.4136	-108.178	-26.5293	29.2242	-97.1617	-50.0227	12.139	-177.622	-49.0942	9.16658	-165.605	-58.9993	-17.5937	-143.194	-70.0428	-38.9275	-166.681	-77.4325	14.5081	-134.03	-81.7903	-4.94121	-94.7418	-70.3616	8.48228	-160.33	-96.0117	24.5034	-128.878	-96.4539	8.78486	-99.8276	-82.0087	22.4775	-155.746	-111.109	47.3369	-131.625	-111.094	25.4787	-103.445	-96.483	23.2604	-188.75	-74.7687	76.2257	-191.888	-63.5168	108.226	-193.116	-35.4979	82.2887	
255	2.125	-157.25	-13.9066	77.9321	-129.077	-13.5163	54.5795	-106.986	-25.9077	28.9851	-96.4845	-50.1649	13.9778	-177.494	-51.4916	9.77136	-164.108	-64.2945	-18.2288	-145.028	-73.6098	-36.275	-162.766	-75.0514	10.4323	-131.699	-83.7204	-2.30516	-94.6808	-73.3614	10.4654	-158.908	-94.5544	23.8311	-126.211	-99.5037	10.7492	-97.7655	-79.897	21.4195	-154.045	-110.822	44.2122	-128.072	-115.356	28.4282	-99.1099	-98.2036	25.6248	-186.418	-75.6343	76.5435	-191.853	-64.0242	108.317	-193.221	-39.4575	83.4196	
256	2.13333	-155.481	-9.80564	81.3489	-126.29	-11.7798	55.156	-107.864	-28.0356	30.8989	-94.0393	-47.803	12.1828	-176.037	-47.3386	10.981	-163.324	-58.6654	-20.4681	-142.86	-71.3877	-38.0876	-163.84	-78.1037	14.1628	-131.904	-83.7333	-4.12082	-96.2006	-75.1844	7.8353	-158.015	-94.0789	21.0048	-130.243	-99.4373	8.56009	-100.535	-84.1049	19.7246	-156.696	-109.545	45.4731	-132.88	-110.612	23.2831	-104.77	-99.6088	22.3021	-185.682	-76.165	76.7869	-193.069	-64.0793	108.818	-192.448	-39.6788	84.0312	
257	2.14167	-148.059	-7.93664	85.894	-120.174	-11.4003	58.7022	-102.363	-25.2149	36.5255	-90.8162	-45.085	17.5198	-173.878	-39.8663	8.10439	-162.265	-53.8899	-17.402	-144.179	-64.3538	-34.9693	-167.536	-65.9831	9.04557	-133.958	-80.2276	-7.60916	-99.8623	-76.0998	3.56248	-167.171	-87.2654	22.9519	-140.161	-96.4372	4.14861	-107.55	-85.9233	12.3847	-164.105	-103.659	42.5203	-140.492	-108.082	18.9409	-111.014	-104.176	15.9793	-186.989	-70.5447	75.2504	-194.116	-61.0548	109.928	-187.599	-35.3917	80.8346	
